<?xml version="1.0" encoding="UTF-8"?>
<svg width="295px" height="175px" viewBox="0 0 295 175" version="1.1" xmlns="http://www.w3.org/2000/svg" xmlns:xlink="http://www.w3.org/1999/xlink">
    <!-- Generator: Sketch 47.1 (45422) - http://www.bohemiancoding.com/sketch -->
    <title>Hero_Illustration</title>
    <desc>Created with Sketch.</desc>
    <defs></defs>
    <g id="v2-Desktop---JS-Profile" stroke="none" stroke-width="1" fill="none" fill-rule="evenodd">
        <g id="JSPortal-Desk_v2s8" transform="translate(-493.000000, -32.000000)">
            <g id="Hero">
                <g id="Hero_Illustration" transform="translate(493.000000, 32.000000)">
                    <g id="Circles" transform="translate(64.000000, 0.000000)">
                        <path d="M53.682569,146.000006 C30.773807,134.776742 15,111.230456 15,84 C15,45.8923523 45.8923523,15 84,15 C122.107648,15 153,45.8923523 153,84 C153,111.230456 137.226193,134.776742 114.317431,146.000006 L53.6825569,146 L53.682569,146.000006 Z" id="Inner" fill="#313450"></path>
                        <path d="M0,84 C0,37.608081 37.608081,0 84,0 C130.391919,0 168,37.608081 168,84 C168,108.550531 157.46782,130.64114 140.675285,146 L137.667618,146 C155.022254,130.964561 166,108.764275 166,84 C166,38.7126505 129.287349,2 84,2 C38.7126505,2 2,38.7126505 2,84 C2,108.764275 12.977746,130.964561 30.3323821,146 L27.3247149,146 C10.5321804,130.64114 0,108.550531 0,84 Z" id="Outer" fill="#333653"></path>
                    </g>
                    <ellipse id="Shadow" fill="#ECECEC" opacity="0.75" cx="161" cy="171" rx="57" ry="4"></ellipse>
                    <g id="Small-cog" transform="translate(91.000000, 30.000000)">
                        <path d="M31.3972556,78 L36.5430305,70.5040558 C36.7435103,70.2120132 36.9924333,69.9579577 37.2785759,69.7533442 C38.6355227,68.783025 40.5062532,69.1191301 41.4569695,70.5040558 L46.6027444,78 C49.5757869,77.4004257 52.4273873,76.4559906 55.1158686,75.2092312 L54.9613537,66.0257422 C54.9553549,65.669206 55.0104245,65.3143407 55.1240797,64.9771465 C55.6630556,63.3781029 57.3700749,62.5277573 58.9368138,63.0778465 L67.5268895,66.0938612 C69.5404202,63.8903887 71.3117753,61.453384 72.7976816,58.8270126 L67.2829822,51.3534693 C67.0727961,51.0686242 66.9129777,50.7484956 66.810733,50.4075175 C66.3258677,48.7905297 67.2171523,47.0785366 68.8014729,46.5836738 L77.7136193,43.7999635 C77.9026837,42.2108826 78,40.5929206 78,38.9517604 C78,37.5848013 77.9324858,36.2339362 77.8006752,34.9024489 L68.8014729,32.0915467 C68.4673834,31.9871938 68.1537222,31.8240801 67.8746317,31.6095601 C66.5511271,30.5922626 66.2862367,28.6725451 67.2829822,27.3217512 L73.0427439,19.516097 C71.6358414,16.954648 69.9594477,14.5681875 68.052763,12.3967228 L58.9368138,15.597374 C58.6064318,15.7133726 58.2587357,15.7695778 57.9094024,15.7634552 C56.2527924,15.734421 54.932906,14.340246 54.9613537,12.6494783 L55.1287521,2.7002671 C52.5764892,1.51553113 49.8771011,0.603304088 47.0662661,0 L41.4569695,8.17116469 C41.2564897,8.46320728 41.0075667,8.71726279 40.7214241,8.92187631 C39.3644773,9.89219548 37.4937468,9.55609043 36.5430305,8.17116469 L30.9337339,4.53245914e-15 C28.1228989,0.603304088 25.4235108,1.51553113 22.8712479,2.7002671 L23.0386463,12.6494783 C23.0446451,13.0060145 22.9895755,13.3608798 22.8759203,13.6980739 C22.3369444,15.2971176 20.6299251,16.1474632 19.0631862,15.597374 L9.94723701,12.3967228 C8.04055231,14.5681875 6.3641586,16.954648 4.95725495,19.5160971 L10.7170178,27.3217512 C10.9272039,27.6065963 11.0870223,27.9267249 11.189267,28.267703 C11.6741323,29.8846908 10.7828477,31.5966839 9.19852712,32.0915467 L0.199324841,34.9024489 C0.067514156,36.2339362 0,37.5848013 0,38.9517604 C0,40.5929206 0.0973163406,42.2108826 0.286380728,43.7999635 L9.19852712,46.5836738 C9.53261657,46.6880267 9.84627779,46.8511404 10.1253683,47.0656604 C11.4488729,48.0829579 11.7137633,50.0026754 10.7170178,51.3534693 L5.20231942,58.8270126 C6.6882247,61.453384 8.45957978,63.8903887 10.4731105,66.0938612 L19.0631862,63.0778465 C19.3935682,62.9618479 19.7412643,62.9056427 20.0905976,62.9117652 C21.7472076,62.9407995 23.067094,64.3349745 23.0386463,66.0257422 L22.8841314,75.2092312 C25.5726127,76.4559906 28.4242131,77.4004257 31.3972556,78 L31.3972556,78 Z" id="Cog" fill="#E54813"></path>
                        <circle id="Oval" fill="#313450" cx="39" cy="39" r="15"></circle>
                    </g>
                    <path d="M123,103 C122.333333,102.333333 117.333333,96.3333333 108,85 L118,71 L136,78 L135,58 L151,54 L161,69 L165,64 L172,64 L166,81 L138,89 C128.666667,99 123.666667,103.666667 123,103 Z" id="Cog-shadow" fill="#000000" opacity="0.0199999996"></path>
                    <g id="Large-cog" transform="translate(104.000000, 57.000000)">
                        <path d="M45.404731,114 L54.5430305,100.681238 C54.7435103,100.389045 54.9924333,100.134859 55.2785759,99.9301409 C56.6355227,98.9593235 58.5062532,99.2956011 59.4569695,100.681238 L68.595269,114 C72.7205008,113.129485 76.6827232,111.803758 80.429334,110.076534 L80.1558452,93.8135684 C80.1498463,93.4568491 80.204916,93.1018017 80.3185711,92.7644344 C80.8575471,91.1645698 82.5645664,90.3137876 84.1313053,90.8641592 L99.179497,96.1503604 C101.969685,93.0176745 104.42975,89.5729168 106.503558,85.873406 L96.923914,72.884367 C96.7137279,72.5993757 96.5539095,72.2790827 96.4516648,71.9379295 C95.9667995,70.3201116 96.8580841,68.6072395 98.4424046,68.1121227 L113.664143,63.3551694 C113.886104,61.267914 114,59.1475392 114,57 C114,54.8524608 113.886104,52.732086 113.664143,50.6448306 L98.4424046,45.8878773 C98.1083152,45.7834709 97.794654,45.6202734 97.5155634,45.4056433 C96.1920589,44.3878235 95.9271684,42.4671204 96.923914,41.115633 L106.503557,28.126594 C104.42975,24.4270832 101.969685,20.9823255 99.179497,17.8496396 L84.1313053,23.1358408 C83.8009233,23.251899 83.4532272,23.308133 83.1038939,23.3020073 C81.4472839,23.2729582 80.1273975,21.8780674 80.1558452,20.1864316 L80.429334,3.92346571 C76.6827232,2.19624167 72.7205008,0.870514967 68.595269,-7.27196081e-15 L59.4569695,13.3187621 C59.2564897,13.6109546 59.0075667,13.8651405 58.7214241,14.0698591 C57.3644773,15.0406765 55.4937468,14.7043989 54.5430305,13.3187621 L45.404731,-3.07728361e-15 C41.2794992,0.870514967 37.3172768,2.19624167 33.570666,3.92346571 L33.8441548,20.1864316 C33.8501537,20.5431509 33.795084,20.8981983 33.6814289,21.2355656 C33.1424529,22.8354302 31.4354336,23.6862124 29.8686947,23.1358408 L14.820503,17.8496396 C12.0303147,20.9823255 9.57025028,24.4270832 7.49644172,28.126594 L17.076086,41.115633 C17.2862721,41.4006243 17.4460905,41.7209173 17.5483352,42.0620705 C18.0332005,43.6798884 17.1419159,45.3927605 15.5575954,45.8878773 L0.335857352,50.6448306 C0.113896387,52.732086 0,54.8524608 0,57 C0,59.1475392 0.113896387,61.267914 0.335857352,63.3551694 L15.5575954,68.1121227 C15.8916848,68.2165291 16.205346,68.3797266 16.4844366,68.5943567 C17.8079411,69.6121765 18.0728316,71.5328796 17.076086,72.884367 L7.49644326,85.873406 C9.57025028,89.5729168 12.0303147,93.0176745 14.820503,96.1503604 L29.8686947,90.8641592 C30.1990767,90.748101 30.5467728,90.691867 30.8961061,90.6979927 C32.5527161,90.7270418 33.8726025,92.1219326 33.8441548,93.8135684 L33.570666,110.076534 C37.3172768,111.803758 41.2794992,113.129485 45.404731,114 L45.404731,114 Z" id="Cog" fill="#FF6633"></path>
                        <circle id="Oval" fill="#313450" cx="57" cy="57" r="21"></circle>
                    </g>
                    <g id="Flair" opacity="0.5" transform="translate(0.000000, 9.000000)">
                        <g id="Star" transform="translate(244.000000, 87.000000)" fill="#5A6D99">
                            <path d="M4.63029099,-0.65087382 L4.63029099,-0.65087382 L4.63029099,-0.65087382 C5.24394071,-0.65087382 5.7414021,-0.153412431 5.7414021,0.460237292 L5.7414021,9.11223347 L5.7414021,9.11223347 C5.7414021,9.7258832 5.24394071,10.2233446 4.63029099,10.2233446 L4.63029099,10.2233446 L4.63029099,10.2233446 C4.01664127,10.2233446 3.51917988,9.7258832 3.51917988,9.11223347 L3.51917988,0.460237292 L3.51917988,0.460237292 C3.51917988,-0.153412431 4.01664127,-0.65087382 4.63029099,-0.65087382 Z" id="Line" transform="translate(4.630291, 4.786235) rotate(45.000000) translate(-4.630291, -4.786235) "></path>
                            <path d="M4.63029099,-0.65087382 L4.63029099,-0.65087382 L4.63029099,-0.65087382 C5.24394071,-0.65087382 5.7414021,-0.153412431 5.7414021,0.460237292 L5.7414021,9.11223347 L5.7414021,9.11223347 C5.7414021,9.7258832 5.24394071,10.2233446 4.63029099,10.2233446 L4.63029099,10.2233446 L4.63029099,10.2233446 C4.01664127,10.2233446 3.51917988,9.7258832 3.51917988,9.11223347 L3.51917988,0.460237292 L3.51917988,0.460237292 C3.51917988,-0.153412431 4.01664127,-0.65087382 4.63029099,-0.65087382 Z" id="Line" transform="translate(4.630291, 4.786235) rotate(-45.000000) translate(-4.630291, -4.786235) "></path>
                        </g>
                        <circle id="Circle" stroke="#677AA7" stroke-width="2.5" cx="285.5" cy="57.5" r="8.25"></circle>
                        <g id="Star" transform="translate(256.000000, 0.000000)" fill="#5A6D99">
                            <path d="M4.63029099,-0.806818214 L4.63029099,-0.806818214 L4.63029099,-0.806818214 C5.24394071,-0.806818214 5.7414021,-0.309356825 5.7414021,0.304292897 L5.7414021,8.95628908 L5.7414021,8.95628908 C5.7414021,9.5699388 5.24394071,10.0674002 4.63029099,10.0674002 L4.63029099,10.0674002 L4.63029099,10.0674002 C4.01664127,10.0674002 3.51917988,9.5699388 3.51917988,8.95628908 L3.51917988,0.304292897 L3.51917988,0.304292897 C3.51917988,-0.309356825 4.01664127,-0.806818214 4.63029099,-0.806818214 Z" id="Line" transform="translate(4.630291, 4.630291) rotate(45.000000) translate(-4.630291, -4.630291) "></path>
                            <path d="M4.63029099,-0.806818214 L4.63029099,-0.806818214 L4.63029099,-0.806818214 C5.24394071,-0.806818214 5.7414021,-0.309356825 5.7414021,0.304292897 L5.7414021,8.95628908 L5.7414021,8.95628908 C5.7414021,9.5699388 5.24394071,10.0674002 4.63029099,10.0674002 L4.63029099,10.0674002 L4.63029099,10.0674002 C4.01664127,10.0674002 3.51917988,9.5699388 3.51917988,8.95628908 L3.51917988,0.304292897 L3.51917988,0.304292897 C3.51917988,-0.309356825 4.01664127,-0.806818214 4.63029099,-0.806818214 Z" id="Line" transform="translate(4.630291, 4.630291) rotate(-45.000000) translate(-4.630291, -4.630291) "></path>
                        </g>
                        <circle id="Circle" stroke="#596791" stroke-width="2.5" cx="43.5" cy="90.5" r="5.25"></circle>
                        <g id="Star" transform="translate(0.000000, 43.000000)" fill="#5A6D99">
                            <path d="M8.36396103,-1.96446609 L8.36396103,-1.96446609 L8.36396103,-1.96446609 C9.19238816,-1.96446609 9.86396103,-1.29289322 9.86396103,-0.464466094 L9.86396103,17.1923882 L9.86396103,17.1923882 C9.86396103,18.0208153 9.19238816,18.6923882 8.36396103,18.6923882 L8.36396103,18.6923882 L8.36396103,18.6923882 C7.53553391,18.6923882 6.86396103,18.0208153 6.86396103,17.1923882 L6.86396103,-0.464466094 L6.86396103,-0.464466094 C6.86396103,-1.29289322 7.53553391,-1.96446609 8.36396103,-1.96446609 Z" id="Rectangle-8" transform="translate(8.363961, 8.363961) rotate(45.000000) translate(-8.363961, -8.363961) "></path>
                            <path d="M8.36396103,-1.96446609 L8.36396103,-1.96446609 L8.36396103,-1.96446609 C9.19238816,-1.96446609 9.86396103,-1.29289322 9.86396103,-0.464466094 L9.86396103,17.1923882 L9.86396103,17.1923882 C9.86396103,18.0208153 9.19238816,18.6923882 8.36396103,18.6923882 L8.36396103,18.6923882 L8.36396103,18.6923882 C7.53553391,18.6923882 6.86396103,18.0208153 6.86396103,17.1923882 L6.86396103,-0.464466094 L6.86396103,-0.464466094 C6.86396103,-1.29289322 7.53553391,-1.96446609 8.36396103,-1.96446609 Z" id="Rectangle-8" transform="translate(8.363961, 8.363961) rotate(-45.000000) translate(-8.363961, -8.363961) "></path>
                        </g>
                        <circle id="Circle" stroke="#596791" stroke-width="2.5" cx="38.5" cy="8.5" r="5.25"></circle>
                    </g>
                    <path d="M189.908245,41.9077828 C193.088906,48.0955381 193.195876,51.8235847 190.168713,57.5296772 C195.905723,54.4821724 199.694952,54.5370773 205.664413,57.6639931 C202.554021,51.7164668 202.554251,47.9810295 205.6651,42.0331773 C199.747763,45.1240572 196.074091,45.0721371 189.908245,41.9077828 Z" id="Sparkle" stroke="#FFFFFF" stroke-width="2" transform="translate(197.849242, 49.849242) rotate(-315.000000) translate(-197.849242, -49.849242) "></path>
                </g>
            </g>
        </g>
    </g>
</svg>