<?xml version="1.0" encoding="UTF-8"?>
<svg width="18px" height="17px" viewBox="0 0 18 17" version="1.1" xmlns="http://www.w3.org/2000/svg" xmlns:xlink="http://www.w3.org/1999/xlink">
    <!-- Generator: Sketch 47.1 (45422) - http://www.bohemiancoding.com/sketch -->
    <title>Close_Lightbox-Hover</title>
    <desc>Created with Sketch.</desc>
    <defs></defs>
    <g id="v5A-–-Desktop" stroke="none" stroke-width="1" fill="none" fill-rule="evenodd">
        <g id="LandingPage_v5As5" transform="translate(-1056.000000, -20.000000)" fill="#CCCCCC">
            <g id="Lightbox">
                <g id="Close_Lightbox-Hover" transform="translate(1056.000000, 19.000000)">
                    <path d="M8.29289322,-1.05025253 L9.70710678,-1.05025253 L9.70710678,-1.05025253 C10.2593915,-1.05025253 10.7071068,-0.602537282 10.7071068,-0.0502525317 L10.7071068,19.0502525 L10.7071068,19.0502525 C10.7071068,19.6025373 10.2593915,20.0502525 9.70710678,20.0502525 L8.29289322,20.0502525 L8.29289322,20.0502525 C7.74060847,20.0502525 7.29289322,19.6025373 7.29289322,19.0502525 L7.29289322,-0.0502525317 L7.29289322,-0.0502525317 C7.29289322,-0.602537282 7.74060847,-1.05025253 8.29289322,-1.05025253 Z" id="Line" transform="translate(9.000000, 9.500000) rotate(45.000000) translate(-9.000000, -9.500000) "></path>
                    <path d="M8.29289322,-1.05025253 L9.70710678,-1.05025253 L9.70710678,-1.05025253 C10.2593915,-1.05025253 10.7071068,-0.602537282 10.7071068,-0.0502525317 L10.7071068,19.0502525 L10.7071068,19.0502525 C10.7071068,19.6025373 10.2593915,20.0502525 9.70710678,20.0502525 L8.29289322,20.0502525 L8.29289322,20.0502525 C7.74060847,20.0502525 7.29289322,19.6025373 7.29289322,19.0502525 L7.29289322,-0.0502525317 L7.29289322,-0.0502525317 C7.29289322,-0.602537282 7.74060847,-1.05025253 8.29289322,-1.05025253 Z" id="Line" transform="translate(9.000000, 9.500000) rotate(-45.000000) translate(-9.000000, -9.500000) "></path>
                </g>
            </g>
        </g>
    </g>
</svg>